# xmcd
#
# Track frame offsets: 
#        150
#        12594
#        20837
#        33338
#        45749
#        55499
#        68699
#        82001
#        93777
#        104768
#        118148
#        131605
#        140735
#        152490
#        163634
#        178009
#        189259
#        202193
#        216886
#        225726
#
# Disc length: 3124 seconds
#
# Revision: 0
# Processed by: cddbd v1.5.2PL0 Copyright (c) Steve Scherf et al.
# Submitted via: ExactAudioCopyFreeDBPlugin 1.0
#
DISCID=240c3214
DTITLE=Hank Williams - Big Box of Hank Williams [D1]
DYEAR=2012
DGENRE=Country
TTITLE0=Never Again
TTITLE1=I Watched My Dream World Crumble
TTITLE2=(Last Night) I Heard You Crying in Your Sleep
TTITLE3=They'll Be No Teardrops Tonight
TTITLE4=Let the Spirit Descend [Live]
TTITLE5=The Pale Horse and His Rider
TTITLE6=I've Just Told Mama Goodbye
TTITLE7=Lost on the River
TTITLE8=Why Don't You Love Me
TTITLE9=Hey Good Lookin'
TTITLE10=Moanin' the Blues [Live]
TTITLE11=Honky Tonk Blues
TTITLE12=I Heard My Mother Praying For Me
TTITLE13=I'll Never Get Outta This World Alive
TTITLE14=Men With Broken Hearts
TTITLE15=Crazy Heart
TTITLE16=Honky Tonkin'
TTITLE17=Lovesick Blues
TTITLE18=Won't You Sometimes Think of Me
TTITLE19=Jambalaya
EXTD=
EXTT0=
EXTT1=
EXTT2=
EXTT3=
EXTT4=
EXTT5=
EXTT6=
EXTT7=
EXTT8=
EXTT9=
EXTT10=
EXTT11=
EXTT12=
EXTT13=
EXTT14=
EXTT15=
EXTT16=
EXTT17=
EXTT18=
EXTT19=
PLAYORDER=
